0
SECTION
2
HEADER
9
$INSUNITS
70
4
9
$ACADVER
1
AC1014
9
$HANDSEED
5
FFFF
0
ENDSEC
0
SECTION
2
TABLES
0
TABLE
2
VPORT
5
8
100
AcDbSymbolTable
0
ENDTAB
0
TABLE
2
LTYPE
5
5
100
AcDbSymbolTable
0
LTYPE
5
14
100
AcDbSymbolTableRecord
100
AcDbLinetypeTableRecord
2
BYBLOCK
70
0
0
LTYPE
5
15
100
AcDbSymbolTableRecord
100
AcDbLinetypeTableRecord
2
BYLAYER
70
0
0
ENDTAB
0
TABLE
2
LAYER
5
2
100
AcDbSymbolTable
70
2
0
LAYER
5
50
100
AcDbSymbolTableRecord
100
AcDbLayerTableRecord
2
0
70
0
6
CONTINUOUS
0
ENDTAB
0
TABLE
2
STYLE
5
3
100
AcDbSymbolTable
70
1
0
STYLE
5
11
100
AcDbSymbolTableRecord
100
AcDbTextStyleTableRecord
2
STANDARD
70
0
0
ENDTAB
0
TABLE
2
VIEW
5
6
100
AcDbSymbolTable
70
0
0
ENDTAB
0
TABLE
2
UCS
5
7
100
AcDbSymbolTable
70
0
0
ENDTAB
0
TABLE
2
APPID
5
9
100
AcDbSymbolTable
70
2
0
APPID
5
12
100
AcDbSymbolTableRecord
100
AcDbRegAppTableRecord
2
ACAD
70
0
0
ENDTAB
0
TABLE
2
DIMSTYLE
5
A
100
AcDbSymbolTable
70
1
0
ENDTAB
0
TABLE
2
BLOCK_RECORD
5
1
100
AcDbSymbolTable
70
1
0
BLOCK_RECORD
5
1F
100
AcDbSymbolTableRecord
100
AcDbBlockTableRecord
2
*MODEL_SPACE
0
BLOCK_RECORD
5
1B
100
AcDbSymbolTableRecord
100
AcDbBlockTableRecord
2
*PAPER_SPACE
0
ENDTAB
0
ENDSEC
0
SECTION
2
BLOCKS
0
BLOCK
5
20
100
AcDbEntity
100
AcDbBlockBegin
2
*MODEL_SPACE
0
ENDBLK
5
21
100
AcDbEntity
100
AcDbBlockEnd
0
BLOCK
5
1C
100
AcDbEntity
100
AcDbBlockBegin
2
*PAPER_SPACE
0
ENDBLK
5
1D
100
AcDbEntity
100
AcDbBlockEnd
0
ENDSEC
0
SECTION
2
ENTITIES
0
LWPOLYLINE
5
100
100
AcDbEntity
8
0
100
AcDbPolyline
90
24
70
1
43
0.0
10
-42.832394895072511
20
-20.060741912882058
10
-8.1327332079251846
20
-2.7109110693083949
10
-5.692913245547615
20
-30.633295083184755
10
7.0483687802017769
20
-3.7952754970317493
10
14.910010881196101
20
-29.548930655461405
10
19.789650805951208
20
-4.3374577108934185
10
31.44656840397726
20
-23.042744089121285
10
31.44656840397726
20
-0.55128316876585881
10
66.688412304986457
20
-15.452193095057861
10
40
20
10
10
77.803147689150649
20
13.825646453472764
10
46.085488178242571
20
26.295837372291349
10
67.501685625778762
20
53.133856958444348
10
36.055117221801503
20
40.121483825764095
10
31.576811689448412
20
58.034705955176477
10
16.761887513926624
20
40.033437181974435
10
10.572553170302683
20
64.790774556470382
10
1.897637748515848
20
36.868390542594028
10
-18.705286378227868
20
64.248592342608731
10
-12.616701370544149
20
31.754364965750625
10
-33.615297259424004
20
45.81439707131171
10
-19.584951065351227
20
21.654465229295216
10
-46.898761499035082
20
16.536557522781141
10
-20.33183301981289
20
6.7772776732709694
0
LWPOLYLINE
5
101
100
AcDbEntity
8
0
100
AcDbPolyline
90
4
70
1
43
0.0
10
-151.08436442772333
20
23.253093283170063
10
-64.790774556470424
20
23.253093283170063
10
-64.790774556470424
20
-5.421822138616772
10
-151.08436442772333
20
-5.421822138616772
0
LINE
5
102
100
AcDbEntity
8
0
100
AcDbLine
10
-137.70899692616706
20
5.9371642906446098
30
0.00015109894297102256
11
-137.72559019761434
21
9.057857251846146
31
0.00011162800028494513
0
LINE
5
103
100
AcDbEntity
8
0
100
AcDbLine
10
-137.72559019761434
20
9.057857251846146
30
0.00011162800028494513
11
-130.56334460108584
21
9.0959396622730697
31
0.00010074689923998154
0
LINE
5
104
100
AcDbEntity
8
0
100
AcDbLine
10
-130.56334460108584
20
9.0959396622730697
30
0.00010074689923998154
11
-130.52934199825881
21
2.7010775254158426
31
0.00018162997233541172
0
SPLINE
5
105
100
AcDbEntity
8
0
100
AcDbSpline
70
0
71
2
72
6
73
3
74
0
42
0.000000001
43
0.0000000001
44
0.0000000001
40
0
40
0
40
0
40
1
40
1
40
1
10
-130.52934199825881
20
2.7010775254158426
30
0.00018162997233541172
10
-132.57847729270196
20
1.28838855218953
30
0.00020248397512831603
10
-134.15659394157308
20
0.77350944892512263
30
0.0002112915373089416
0
SPLINE
5
106
100
AcDbEntity
8
0
100
AcDbSpline
70
0
71
2
72
6
73
3
74
0
42
0.000000001
43
0.0000000001
44
0.0000000001
40
0
40
0
40
0
40
1
40
1
40
1
10
-134.15659394157308
20
0.77350944892512263
30
0.0002112915373089416
10
-135.73471059678269
20
0.25863153773675984
30
0.00022009908441202963
10
-137.90384792995457
20
0.24709800721467889
30
0.00022339450373053024
0
SPLINE
5
107
100
AcDbEntity
8
0
100
AcDbSpline
70
0
71
2
72
6
73
3
74
0
42
0.000000001
43
0.0000000001
44
0.0000000001
40
0
40
0
40
0
40
1
40
1
40
1
10
-137.90384792995457
20
0.24709800721467889
30
0.00022339450373053024
10
-140.5743438376916
20
0.2328987006101757
30
0.00022745160222298252
10
-142.26231254449479
20
1.1345774215475468
30
0.00021849091349331745
0
SPLINE
5
108
100
AcDbEntity
8
0
100
AcDbSpline
70
0
71
2
72
6
73
3
74
0
42
0.000000001
43
0.0000000001
44
0.0000000001
40
0
40
0
40
0
40
1
40
1
40
1
10
-142.26231254449479
20
1.1345774215475468
30
0.00021849091349331745
10
-143.95028244337399
20
2.0362561361465303
30
0.00020953022657469047
10
-144.88583364333283
20
3.8321268034688671
30
0.00018816031148291974
0
SPLINE
5
109
100
AcDbEntity
8
0
100
AcDbSpline
70
0
71
2
72
6
73
3
74
0
42
0.000000001
43
0.0000000001
44
0.0000000001
40
0
40
0
40
0
40
1
40
1
40
1
10
-144.88583364333283
20
3.8321268034688671
30
0.00018816031148291974
10
-145.8213848369532
20
5.6279962787151616
30
0.00016679041146868648
10
-145.83378898976051
20
7.9608426061202202
30
0.00013728425856315404
0
SPLINE
5
110
100
AcDbEntity
8
0
100
AcDbSpline
70
0
71
2
72
6
73
3
74
0
42
0.000000001
43
0.0000000001
44
0.0000000001
40
0
40
0
40
0
40
1
40
1
40
1
10
-145.83378898976051
20
7.9608426061202202
30
0.00013728425856315404
10
-145.84684598671069
20
10.416469189842978
30
0.00010622516452552387
10
-144.84355637287766
20
12.237996097835415
30
8.1715471392542703e-05
0
SPLINE
5
111
100
AcDbEntity
8
0
100
AcDbSpline
70
0
71
2
72
6
73
3
74
0
42
0.000000001
43
0.0000000001
44
0.0000000001
40
0
40
0
40
0
40
1
40
1
40
1
10
-144.84355637287766
20
12.237996097835415
30
8.1715471392542703e-05
10
-143.84026675904462
20
14.059523005827849
30
5.7205778259561524e-05
10
-141.89100273526972
20
15.011236908231185
30
4.2330815627653934e-05
0
SPLINE
5
112
100
AcDbEntity
8
0
100
AcDbSpline
70
0
71
2
72
6
73
3
74
0
42
0.000000001
43
0.0000000001
44
0.0000000001
40
0
40
0
40
0
40
1
40
1
40
1
10
-141.89100273526972
20
15.011236908231185
30
4.2330815627653934e-05
10
-140.37033011015711
20
15.745800123997565
30
3.0826368505052122e-05
10
-137.79192088479516
20
15.759509796061364
30
2.6909170897359302e-05
0
SPLINE
5
113
100
AcDbEntity
8
0
100
AcDbSpline
70
0
71
2
72
6
73
3
74
0
42
0.000000001
43
0.0000000001
44
0.0000000001
40
0
40
0
40
0
40
1
40
1
40
1
10
-137.79192088479516
20
15.759509796061364
30
2.6909170897359302e-05
10
-135.30560072596037
20
15.772729820907671
30
2.3131877796502206e-05
10
-134.07027606809686
20
15.329087196826583
30
2.6952939507112307e-05
0
SPLINE
5
114
100
AcDbEntity
8
0
100
AcDbSpline
70
0
71
2
72
6
73
3
74
0
42
0.000000001
43
0.0000000001
44
0.0000000001
40
0
40
0
40
0
40
1
40
1
40
1
10
-134.07027606809686
20
15.329087196826583
30
2.6952939507112307e-05
10
-132.83495141023334
20
14.885444572745495
30
3.0774001217722409e-05
10
-132.0164940107336
20
13.943329208060183
30
4.1508926609482282e-05
0
SPLINE
5
115
100
AcDbEntity
8
0
100
AcDbSpline
70
0
71
2
72
6
73
3
74
0
42
0.000000001
43
0.0000000001
44
0.0000000001
40
0
40
0
40
0
40
1
40
1
40
1
10
-132.0164940107336
20
13.943329208060183
30
4.1508926609482282e-05
10
-131.19803423342029
20
13.001215048127701
30
5.2243833301628378e-05
10
-130.78103814016913
20
11.550478172055772
30
6.9998695252466523e-05
0
LINE
5
116
100
AcDbEntity
8
0
100
AcDbLine
10
-130.78103814016913
20
11.550478172055772
30
6.9998695252466523e-05
11
-135.24808112978732
21
10.72862565060872
31
8.6885809809473255e-05
0
SPLINE
5
117
100
AcDbEntity
8
0
100
AcDbSpline
70
0
71
2
72
6
73
3
74
0
42
0.000000001
43
0.0000000001
44
0.0000000001
40
0
40
0
40
0
40
1
40
1
40
1
10
-135.24808112978732
20
10.728625650608718
30
8.6885809809473255e-05
10
-135.5288555287172
20
11.576394111318349
30
7.6564242767350867e-05
10
-136.19119929909937
20
12.023083334825522
30
7.1872691089664017e-05
0
SPLINE
5
118
100
AcDbEntity
8
0
100
AcDbSpline
70
0
71
2
72
6
73
3
74
0
42
0.000000001
43
0.0000000001
44
0.0000000001
40
0
40
0
40
0
40
1
40
1
40
1
10
-136.19119929909937
20
12.023083334825522
30
7.1872691089664017e-05
10
-136.85354306948153
20
12.469772558332695
30
6.7181139411977181e-05
10
-137.87672101184273
20
12.46433221398599
30
6.8735582418400548e-05
0
SPLINE
5
119
100
AcDbEntity
8
0
100
AcDbSpline
70
0
71
2
72
6
73
3
74
0
42
0.000000001
43
0.0000000001
44
0.0000000001
40
0
40
0
40
0
40
1
40
1
40
1
10
-137.87672101184273
20
12.46433221398599
30
6.8735582418400548e-05
10
-139.40125633669311
20
12.456226099895261
30
7.1051702787737464e-05
10
-140.30113719826474
20
11.392422300992774
30
8.5821619653087959e-05
0
SPLINE
5
120
100
AcDbEntity
8
0
100
AcDbSpline
70
0
71
2
72
6
73
3
74
0
42
0.000000001
43
0.0000000001
44
0.0000000001
40
0
40
0
40
0
40
1
40
1
40
1
10
-140.30113719826474
20
11.392422300992774
30
8.5821619653087959e-05
10
-141.20101925191244
20
10.328618495751893
30
0.0001005915383294766
10
-141.18883271804506
20
8.0366997151700978
30
0.00012958003413928479
0
SPLINE
5
121
100
AcDbEntity
8
0
100
AcDbSpline
70
0
71
2
72
6
73
3
74
0
42
0.000000001
43
0.0000000001
44
0.0000000001
40
0
40
0
40
0
40
1
40
1
40
1
10
-141.18883271804506
20
8.0366997151700978
30
0.00012958003413928479
10
-141.1758845273956
20
5.6015363088209469
30
0.00016038030716782159
10
-140.25459202373162
20
4.5627642925430001
30
0.00017218919486648615
0
SPLINE
5
122
100
AcDbEntity
8
0
100
AcDbSpline
70
0
71
2
72
6
73
3
74
0
42
0.000000001
43
0.0000000001
44
0.0000000001
40
0
40
0
40
0
40
1
40
1
40
1
10
-140.25459202373162
20
4.5627642925430001
30
0.00017218919486648615
10
-139.33329712957706
20
3.5239910968657928
30
0.00018399809402061198
10
-137.6962119449687
20
3.5326956503558749
30
0.00018151098448591934
0
SPLINE
5
123
100
AcDbEntity
8
0
100
AcDbSpline
70
0
71
2
72
6
73
3
74
0
42
0.000000001
43
0.0000000001
44
0.0000000001
40
0
40
0
40
0
40
1
40
1
40
1
10
-137.6962119449687
20
3.5326956503558749
30
0.00018151098448591934
10
-136.91859689950635
20
3.536830311045227
30
0.00018032960809080369
10
-136.2138034457742
20
3.7656838551280081
30
0.00017640995470071216
0
SPLINE
5
124
100
AcDbEntity
8
0
100
AcDbSpline
70
0
71
2
72
6
73
3
74
0
42
0.000000001
43
0.0000000001
44
0.0000000001
40
0
40
0
40
0
40
1
40
1
40
1
10
-136.2138034457742
20
3.7656838551280081
30
0.00017640995470071216
10
-135.50900522373792
20
3.9945374245643572
30
0.00017249029406646819
10
-134.601261750888
20
4.541663060182306
30
0.00016424796467516417
0
LINE
5
125
100
AcDbEntity
8
0
100
AcDbLine
10
-134.601261750888
20
4.5416630601823069
30
0.00016424796467516417
11
-134.60876952508511
21
5.9536485246342981
31
0.0001463889833418962
0
LINE
5
126
100
AcDbEntity
8
0
100
AcDbLine
10
-134.60876952508511
20
5.9536485246342981
30
0.0001463889833418962
11
-137.70899692616706
21
5.9371642906446098
31
0.00015109894297102256
0
SPLINE
5
127
100
AcDbEntity
8
0
100
AcDbSpline
70
0
71
2
72
6
73
3
74
0
42
0.000000001
43
0.0000000001
44
0.0000000001
40
0
40
0
40
0
40
1
40
1
40
1
10
-128.38855161667382
20
8.0433676913979451
30
0.0001109104323345503
10
-128.40808271528721
20
11.71657717037132
30
6.4451186705114189e-05
10
-126.37260766346944
20
13.773813742859041
30
3.5459717301729787e-05
0
SPLINE
5
128
100
AcDbEntity
8
0
100
AcDbSpline
70
0
71
2
72
6
73
3
74
0
42
0.000000001
43
0.0000000001
44
0.0000000001
40
0
40
0
40
0
40
1
40
1
40
1
10
-126.37260766346944
20
13.773813742859041
30
3.5459717301729787e-05
10
-124.33713261165167
20
15.83105031534676
30
6.4682478983453744e-06
10
-120.68438750047127
20
15.850472343903883
30
9.1888658273852171e-07
0
SPLINE
5
129
100
AcDbEntity
8
0
100
AcDbSpline
70
0
71
2
72
6
73
3
74
0
42
0.000000001
43
0.0000000001
44
0.0000000001
40
0
40
0
40
0
40
1
40
1
40
1
10
-120.68438750047127
20
15.850472343903883
30
9.1888658273852171e-07
10
-116.93955689899181
20
15.870384000663316
30
-4.7703738065896528e-06
10
-114.90297138879106
20
13.870611169822384
30
1.7581463924939114e-05
0
SPLINE
5
130
100
AcDbEntity
8
0
100
AcDbSpline
70
0
71
2
72
6
73
3
74
0
42
0.000000001
43
0.0000000001
44
0.0000000001
40
0
40
0
40
0
40
1
40
1
40
1
10
-114.90297138879106
20
13.870611169822384
30
1.7581463924939114e-05
10
-112.86639064689447
20
11.870838313627882
30
3.9933308900620413e-05
10
-112.84713157037139
20
8.2487879701645728
30
8.5745486929785596e-05
0
SPLINE
5
131
100
AcDbEntity
8
0
100
AcDbSpline
70
0
71
2
72
6
73
3
74
0
42
0.000000001
43
0.0000000001
44
0.0000000001
40
0
40
0
40
0
40
1
40
1
40
1
10
-112.84713157037139
20
8.2487879701645728
30
8.5745486929785596e-05
10
-112.83314970084953
20
5.6192208025380053
30
0.000119004604777322
10
-113.70924992155716
20
3.931386971500257
30
0.00014163762672583734
0
SPLINE
5
132
100
AcDbEntity
8
0
100
AcDbSpline
70
0
71
2
72
6
73
3
74
0
42
0.000000001
43
0.0000000001
44
0.0000000001
40
0
40
0
40
0
40
1
40
1
40
1
10
-113.70924992155716
20
3.931386971500257
30
0.00014163762672583734
10
-114.58534537396062
20
2.2435531658160812
30
0.00016427064143020018
10
-116.25326492693662
20
1.2984505443705241
30
0.00017865343796280922
0
SPLINE
5
133
100
AcDbEntity
8
0
100
AcDbSpline
70
0
71
2
72
6
73
3
74
0
42
0.000000001
43
0.0000000001
44
0.0000000001
40
0
40
0
40
0
40
1
40
1
40
1
10
-116.25326492693662
20
1.2984505443705241
30
0.00017865343796280922
10
-117.9211844799126
20
0.35334792292496697
30
0.00019303623449541825
10
-120.41773741951488
20
0.34007348931094139
30
0.00019682907354761161
0
SPLINE
5
134
100
AcDbEntity
8
0
100
AcDbSpline
70
0
71
2
72
6
73
3
74
0
42
0.000000001
43
0.0000000001
44
0.0000000001
40
0
40
0
40
0
40
1
40
1
40
1
10
-120.41773741951488
20
0.34007348931094139
30
0.00019682907354761161
10
-122.95521909803503
20
0.32658143330283051
30
0.00020068409278307378
10
-124.62217939753712
20
1.1260518864931579
30
0.00019298643408477867
0
SPLINE
5
135
100
AcDbEntity
8
0
100
AcDbSpline
70
0
71
2
72
6
73
3
74
0
42
0.000000001
43
0.0000000001
44
0.0000000001
40
0
40
0
40
0
40
1
40
1
40
1
10
-124.62217939753712
20
1.1260518864931579
30
0.00019298643408477867
10
-126.28914207485282
20
1.9255211349306545
30
0.00018528879408609734
10
-127.33185591417163
20
3.6696614253890392
30
0.00016472916459532325
0
SPLINE
5
136
100
AcDbEntity
8
0
100
AcDbSpline
70
0
71
2
72
6
73
3
74
0
42
0.000000001
43
0.0000000001
44
0.0000000001
40
0
40
0
40
0
40
1
40
1
40
1
10
-127.33185591417163
20
3.6696614253890392
30
0.00016472916459532325
10
-128.37456974715195
20
5.4138005237713793
30
0.00014416955018208669
10
-128.38855161667382
20
8.0433676913979451
30
0.0001109104323345503
0
SPLINE
5
137
100
AcDbEntity
8
0
100
AcDbSpline
70
0
71
2
72
6
73
3
74
0
42
0.000000001
43
0.0000000001
44
0.0000000001
40
0
40
0
40
0
40
1
40
1
40
1
10
-123.75344611159726
20
8.0475492772108659
30
0.00010412762558280599
10
-123.74136838403061
20
5.776093674002678
30
0.0001328573003835208
10
-122.89196783122101
20
4.7880999825679211
30
0.0001441279276529632
0
SPLINE
5
138
100
AcDbEntity
8
0
100
AcDbSpline
70
0
71
2
72
6
73
3
74
0
42
0.000000001
43
0.0000000001
44
0.0000000001
40
0
40
0
40
0
40
1
40
1
40
1
10
-122.89196783122101
20
4.7880999825679211
30
0.0001441279276529632
10
-122.04256965622503
20
3.8001050863803321
30
0.00015539857362201941
10
-120.58965783636683
20
3.8078303707890071
30
0.00015319126585684568
0
SPLINE
5
139
100
AcDbEntity
8
0
100
AcDbSpline
70
0
71
2
72
6
73
3
74
0
42
0.000000001
43
0.0000000001
44
0.0000000001
40
0
40
0
40
0
40
1
40
1
40
1
10
-120.58965783636683
20
3.8078303707890071
30
0.00015319126585684568
10
-119.09581727759081
20
3.8157732775917652
30
0.00015092177790840315
10
-118.28244427806314
20
4.7921455464615459
30
0.00013738398577955953
0
SPLINE
5
140
100
AcDbEntity
8
0
100
AcDbSpline
70
0
71
2
72
6
73
3
74
0
42
0.000000001
43
0.0000000001
44
0.0000000001
40
0
40
0
40
0
40
1
40
1
40
1
10
-118.28244427806314
20
4.7921455464615459
30
0.00013738398577955953
10
-117.46907127219703
20
5.7685166232552838
30
0.00012384620872825345
10
-117.48245469438791
20
8.2855339311749141
30
9.2010636585805657e-05
0
SPLINE
5
141
100
AcDbEntity
8
0
100
AcDbSpline
70
0
71
2
72
6
73
3
74
0
42
0.000000001
43
0.0000000001
44
0.0000000001
40
0
40
0
40
0
40
1
40
1
40
1
10
-117.48245469438791
20
8.2855339311749141
30
9.2010636585805657e-05
10
-117.4937163556836
20
10.403512127852901
30
6.5222164585903683e-05
10
-118.35326331940021
20
11.376104648881329
30
5.4161184241696252e-05
0
SPLINE
5
142
100
AcDbEntity
8
0
100
AcDbSpline
70
0
71
2
72
6
73
3
74
0
42
0.000000001
43
0.0000000001
44
0.0000000001
40
0
40
0
40
0
40
1
40
1
40
1
10
-118.35326331940021
20
11.376104648881329
30
5.4161184241696252e-05
10
-119.21281266726891
20
12.348697157232973
30
4.3100207519565128e-05
10
-120.67595726789456
20
12.340917464056581
30
4.5323061236075123e-05
0
SPLINE
5
143
100
AcDbEntity
8
0
100
AcDbSpline
70
0
71
2
72
6
73
3
74
0
42
0.000000001
43
0.0000000001
44
0.0000000001
40
0
40
0
40
0
40
1
40
1
40
1
10
-120.67595726789456
20
12.340917464056581
30
4.5323061236075123e-05
10
-122.07771233637158
20
12.333464185456133
30
4.7452650110796325e-05
10
-122.92167010359677
20
11.336465538263161
30
6.1295893858589551e-05
0
SPLINE
5
144
100
AcDbEntity
8
0
100
AcDbSpline
70
0
71
2
72
6
73
3
74
0
42
0.000000001
43
0.0000000001
44
0.0000000001
40
0
40
0
40
0
40
1
40
1
40
1
10
-122.92167010359677
20
11.336465538263161
30
6.1295893858589551e-05
10
-123.76563264546462
20
10.339468057792661
30
7.5139129772997795e-05
10
-123.75344611159726
20
8.0475492772108659
30
0.00010412762558280599
0
LINE
5
145
100
AcDbEntity
8
0
100
AcDbLine
10
-102.7981630532843
20
6.1227888529379797
30
9.8061343824897883e-05
11
-102.81475632473159
21
9.2434818141395141
31
5.8590401138820436e-05
0
LINE
5
146
100
AcDbEntity
8
0
100
AcDbLine
10
-102.81475632473159
20
9.2434818141395141
30
5.8590401138820436e-05
11
-95.652515496507263
21
9.2815641992128644
31
4.7709307338009385e-05
0
LINE
5
147
100
AcDbEntity
8
0
100
AcDbLine
10
-95.652515496507263
20
9.2815641992128644
30
4.7709307338009385e-05
11
-95.618512893680233
21
2.8867020623556372
31
0.00012859238043343957
0
SPLINE
5
148
100
AcDbEntity
8
0
100
AcDbSpline
70
0
71
2
72
6
73
3
74
0
42
0.000000001
43
0.0000000001
44
0.0000000001
40
0
40
0
40
0
40
1
40
1
40
1
10
-95.618512893680219
20
2.8867020623556372
30
0.00012859238043343957
10
-97.667643419819228
20
1.4740131144828972
30
0.00014944637598219134
10
-99.245762452842428
20
0.95913399854170356
30
0.0001582539417848932
0
SPLINE
5
149
100
AcDbEntity
8
0
100
AcDbSpline
70
0
71
2
72
6
73
3
74
0
42
0.000000001
43
0.0000000001
44
0.0000000001
40
0
40
0
40
0
40
1
40
1
40
1
10
-99.245762452842428
20
0.95913399854170356
30
0.0001582539417848932
10
-100.82387672389996
20
0.44425610003012705
30
0.00016706148526590494
10
-102.99301644122387
20
0.43272255683125982
30
0.00017035690820648179
0
SPLINE
5
150
100
AcDbEntity
8
0
100
AcDbSpline
70
0
71
2
72
6
73
3
74
0
42
0.000000001
43
0.0000000001
44
0.0000000001
40
0
40
0
40
0
40
1
40
1
40
1
10
-102.99301644122387
20
0.43272255683125982
30
0.00017035690820648179
10
-105.66350996480885
20
0.41852326290354291
30
0.00017441400307685779
10
-107.35148224784015
20
1.3202019648257357
30
0.00016545331978030716
0
SPLINE
5
151
100
AcDbEntity
8
0
100
AcDbSpline
70
0
71
2
72
6
73
3
74
0
42
0.000000001
43
0.0000000001
44
0.0000000001
40
0
40
0
40
0
40
1
40
1
40
1
10
-107.35148224784015
20
1.3202019648257357
30
0.00016545331978030716
10
-109.03944976256727
20
2.2218806921015033
30
0.00015649262923960391
10
-109.97500096252611
20
4.0177513594238423
30
0.00013512271414783315
0
SPLINE
5
152
100
AcDbEntity
8
0
100
AcDbSpline
70
0
71
2
72
6
73
3
74
0
42
0.000000001
43
0.0000000001
44
0.0000000001
40
0
40
0
40
0
40
1
40
1
40
1
10
-109.97500096252611
20
4.0177513594238423
30
0.00013512271414783315
10
-110.91055215614648
20
5.8136208346701368
30
0.00011375281413359992
10
-110.92295630895379
20
8.1464671620751954
30
8.4246661228067478e-05
0
SPLINE
5
153
100
AcDbEntity
8
0
100
AcDbSpline
70
0
71
2
72
6
73
3
74
0
42
0.000000001
43
0.0000000001
44
0.0000000001
40
0
40
0
40
0
40
1
40
1
40
1
10
-110.92295630895379
20
8.1464671620751954
30
8.4246661228067478e-05
10
-110.936013305904
20
10.602093745797951
30
5.3187567190437295e-05
10
-109.93272488414698
20
12.423620647451996
30
2.8677875868494272e-05
0
SPLINE
5
154
100
AcDbEntity
8
0
100
AcDbSpline
70
0
71
2
72
6
73
3
74
0
42
0.000000001
43
0.0000000001
44
0.0000000001
40
0
40
0
40
0
40
1
40
1
40
1
10
-109.93272488414698
20
12.423620647451996
30
2.8677875868494272e-05
10
-108.92943646238999
20
14.245147549106038
30
4.168184546551226e-06
10
-106.98017124653904
20
15.196861457847765
30
-1.0706779896394492e-05
0
SPLINE
5
155
100
AcDbEntity
8
0
100
AcDbSpline
70
0
71
2
72
6
73
3
74
0
42
0.000000001
43
0.0000000001
44
0.0000000001
40
0
40
0
40
0
40
1
40
1
40
1
10
-106.98017124653904
20
15.196861457847765
30
-1.0706779896394492e-05
10
-105.45949742935039
20
15.931424679952539
30
-2.2211228830034431e-05
10
-102.88108939606448
20
15.945134345677944
30
-2.6128424626689111e-05
0
SPLINE
5
156
100
AcDbEntity
8
0
100
AcDbSpline
70
0
71
2
72
6
73
3
74
0
42
0.000000001
43
0.0000000001
44
0.0000000001
40
0
40
0
40
0
40
1
40
1
40
1
10
-102.88108939606448
20
15.945134345677944
30
-2.6128424626689111e-05
10
-100.39476685307761
20
15.958354383201041
30
-2.9905721349622486e-05
10
-99.159442195214098
20
15.514711759119951
30
-2.6084659639012381e-05
0
SPLINE
5
157
100
AcDbEntity
8
0
100
AcDbSpline
70
0
71
2
72
6
73
3
74
0
42
0.000000001
43
0.0000000001
44
0.0000000001
40
0
40
0
40
0
40
1
40
1
40
1
10
-99.159442195214098
20
15.514711759119951
30
-2.6084659639012381e-05
10
-97.924122305654748
20
15.07106910968529
30
-2.2263590684249739e-05
10
-97.105660137850833
20
14.128953770353549
30
-1.15286725366424e-05
0
SPLINE
5
158
100
AcDbEntity
8
0
100
AcDbSpline
70
0
71
2
72
6
73
3
74
0
42
0.000000001
43
0.0000000001
44
0.0000000001
40
0
40
0
40
0
40
1
40
1
40
1
10
-97.105660137850833
20
14.128953770353549
30
-1.15286725366424e-05
10
-96.287202744689608
20
13.186839597744285
30
-7.9376222242004903e-07
10
-95.870204267286354
20
11.736102734349139
30
1.6961096106341834e-05
0
LINE
5
159
100
AcDbEntity
8
0
100
AcDbLine
10
-95.870204267286354
20
11.736102734349139
30
1.696109610634183e-05
11
-100.33725202520873
21
10.914250187548513
31
3.384821790750109e-05
0
SPLINE
5
160
100
AcDbEntity
8
0
100
AcDbSpline
70
0
71
2
72
6
73
3
74
0
42
0.000000001
43
0.0000000001
44
0.0000000001
40
0
40
0
40
0
40
1
40
1
40
1
10
-100.33725202520873
20
10.914250187548513
30
3.384821790750109e-05
10
-100.61802403998655
20
11.762018660934931
30
2.3526647243302436e-05
10
-101.2803654262166
20
12.208707897118888
30
1.8835091943539318e-05
0
SPLINE
5
161
100
AcDbEntity
8
0
100
AcDbSpline
70
0
71
2
72
6
73
3
74
0
42
0.000000001
43
0.0000000001
44
0.0000000001
40
0
40
0
40
0
40
1
40
1
40
1
10
-101.2803654262166
20
12.208707897118888
30
1.8835091943539318e-05
10
-101.94271158075085
20
12.655397107949275
30
1.414354388792875e-05
10
-102.96588952311208
20
12.649956763602573
30
1.5697986894352127e-05
0
SPLINE
5
162
100
AcDbEntity
8
0
100
AcDbSpline
70
0
71
2
72
6
73
3
74
0
42
0.000000001
43
0.0000000001
44
0.0000000001
40
0
40
0
40
0
40
1
40
1
40
1
10
-102.96588952311208
20
12.649956763602573
30
1.5697986894352127e-05
10
-104.49042127173431
20
12.641850668527022
30
1.801410183057464e-05
10
-105.39030570953408
20
11.578046850609356
30
3.2784024129039549e-05
0
SPLINE
5
163
100
AcDbEntity
8
0
100
AcDbSpline
70
0
71
2
72
6
73
3
74
0
42
0.000000001
43
0.0000000001
44
0.0000000001
40
0
40
0
40
0
40
1
40
1
40
1
10
-105.39030570953408
20
11.578046850609356
30
3.2784024129039549e-05
10
-106.29018537902967
20
10.51424305804526
30
4.7553939183351908e-05
10
-106.27799884516229
20
8.2223242774634659
30
7.6542434993160104e-05
0
SPLINE
5
164
100
AcDbEntity
8
0
100
AcDbSpline
70
0
71
2
72
6
73
3
74
0
42
0.000000001
43
0.0000000001
44
0.0000000001
40
0
40
0
40
0
40
1
40
1
40
1
10
-106.27799884516229
20
8.2223242774634659
30
7.6542434993160104e-05
10
-106.26505065451283
20
5.7871608711143168
30
0.00010734270802169691
10
-105.34375815084886
20
4.7483888548363691
30
0.00011915159572036148
0
SPLINE
5
165
100
AcDbEntity
8
0
100
AcDbSpline
70
0
71
2
72
6
73
3
74
0
42
0.000000001
43
0.0000000001
44
0.0000000001
40
0
40
0
40
0
40
1
40
1
40
1
10
-105.34375815084886
20
4.7483888548363691
30
0.00011915159572036148
10
-104.42246564084638
20
3.7096156464823737
30
0.00013096049849656356
10
-102.78537807208593
20
3.7183202126492443
30
0.00012847338533979465
0
SPLINE
5
166
100
AcDbEntity
8
0
100
AcDbSpline
70
0
71
2
72
6
73
3
74
0
42
0.000000001
43
0.0000000001
44
0.0000000001
40
0
40
0
40
0
40
1
40
1
40
1
10
-102.78537807208593
20
3.7183202126492443
30
0.00012847338533979465
10
-102.00776302662359
20
3.7224548733385943
30
0.000127292008944679
10
-101.30296957289146
20
3.9513084174213753
30
0.00012337235555458749
0
SPLINE
5
167
100
AcDbEntity
8
0
100
AcDbSpline
70
0
71
2
72
6
73
3
74
0
42
0.000000001
43
0.0000000001
44
0.0000000001
40
0
40
0
40
0
40
1
40
1
40
1
10
-101.30296957289146
20
3.9513084174213753
30
0.00012337235555458749
10
-100.59817611915933
20
4.1801619615041519
30
0.00011945270216449602
10
-99.690427878005238
20
4.7272876224756732
30
0.00011121036552903949
0
LINE
5
168
100
AcDbEntity
8
0
100
AcDbLine
10
-99.69042787800521
20
4.7272876224756732
30
0.00011121036552903949
11
-99.697935652202361
21
6.1392730869276662
31
9.3351384195771505e-05
0
LINE
5
169
100
AcDbEntity
8
0
100
AcDbLine
10
-99.697935652202361
20
6.1392730869276662
30
9.3351384195771505e-05
11
-102.7981630532843
21
6.1227888529379797
31
9.8061343824897883e-05
0
SPLINE
5
170
100
AcDbEntity
8
0
100
AcDbSpline
70
0
71
2
72
6
73
3
74
0
42
0.000000001
43
0.0000000001
44
0.0000000001
40
0
40
0
40
0
40
1
40
1
40
1
10
-93.477722512095227
20
8.2289922283377397
30
5.7872840432578163e-05
10
-93.49725361070864
20
11.902201707311114
30
1.1413594803142037e-05
10
-91.461778558890856
20
13.959438279798835
30
-1.7577874600242379e-05
0
SPLINE
5
171
100
AcDbEntity
8
0
100
AcDbSpline
70
0
71
2
72
6
73
3
74
0
42
0.000000001
43
0.0000000001
44
0.0000000001
40
0
40
0
40
0
40
1
40
1
40
1
10
-91.461778558890856
20
13.959438279798835
30
-1.7577874600242379e-05
10
-89.426303507073072
20
16.016674852286556
30
-4.656934400362678e-05
10
-85.773558395892678
20
16.036096880843679
30
-5.2118705319233633e-05
0
SPLINE
5
172
100
AcDbEntity
8
0
100
AcDbSpline
70
0
71
2
72
6
73
3
74
0
42
0.000000001
43
0.0000000001
44
0.0000000001
40
0
40
0
40
0
40
1
40
1
40
1
10
-85.773558395892678
20
16.036096880843679
30
-5.2118705319233633e-05
10
-82.028727794413228
20
16.056008537603109
30
-5.7807965708561807e-05
10
-79.992142284212477
20
14.056235706762179
30
-3.5456127977033051e-05
0
SPLINE
5
173
100
AcDbEntity
8
0
100
AcDbSpline
70
0
71
2
72
6
73
3
74
0
42
0.000000001
43
0.0000000001
44
0.0000000001
40
0
40
0
40
0
40
1
40
1
40
1
10
-79.992142284212477
20
14.056235706762179
30
-3.5456127977033051e-05
10
-77.955561542315891
20
12.056462850567677
30
-1.3104283001351745e-05
10
-77.936302465792807
20
8.4344125071043674
30
3.270789502781343e-05
0
SPLINE
5
174
100
AcDbEntity
8
0
100
AcDbSpline
70
0
71
2
72
6
73
3
74
0
42
0.000000001
43
0.0000000001
44
0.0000000001
40
0
40
0
40
0
40
1
40
1
40
1
10
-77.936302465792807
20
8.4344125071043674
30
3.270789502781343e-05
10
-77.92232059627095
20
5.8048453394777999
30
6.5967012875349835e-05
10
-78.798420816978592
20
4.1170115084400516
30
8.8600034823865185e-05
0
SPLINE
5
175
100
AcDbEntity
8
0
100
AcDbSpline
70
0
71
2
72
6
73
3
74
0
42
0.000000001
43
0.0000000001
44
0.0000000001
40
0
40
0
40
0
40
1
40
1
40
1
10
-78.798420816978592
20
4.1170115084400516
30
8.8600034823865185e-05
10
-79.674521037686219
20
2.4291776774023033
30
0.00011123305677238055
10
-81.342435822358041
20
1.4840750813103187
30
0.00012561584606083707
0
SPLINE
5
176
100
AcDbEntity
8
0
100
AcDbSpline
70
0
71
2
72
6
73
3
74
0
42
0.000000001
43
0.0000000001
44
0.0000000001
40
0
40
0
40
0
40
1
40
1
40
1
10
-81.342435822358041
20
1.4840750813103187
30
0.00012561584606083707
10
-83.010355375334015
20
0.53897245986476161
30
0.0001399986425934461
10
-85.506910699088394
20
0.52569801357394974
30
0.00014379148526771573
0
SPLINE
5
177
100
AcDbEntity
8
0
100
AcDbSpline
70
0
71
2
72
6
73
3
74
0
42
0.000000001
43
0.0000000001
44
0.0000000001
40
0
40
0
40
0
40
1
40
1
40
1
10
-85.506910699088394
20
0.52569801357394974
30
0.00014379148526771573
10
-88.044392377608531
20
0.51220595756583887
30
0.00014764650450317787
10
-89.711350292958528
20
1.3116764234329525
30
0.00013994884218280649
0
SPLINE
5
178
100
AcDbEntity
8
0
100
AcDbSpline
70
0
71
2
72
6
73
3
74
0
42
0.000000001
43
0.0000000001
44
0.0000000001
40
0
40
0
40
0
40
1
40
1
40
1
10
-89.711350292958528
20
1.3116764234329525
30
0.00013994884218280649
10
-91.378312970274251
20
2.1111456718704491
30
0.00013225120218412519
10
-92.421026809593059
20
3.8552859623288338
30
0.00011169157269335109
0
SPLINE
5
179
100
AcDbEntity
8
0
100
AcDbSpline
70
0
71
2
72
6
73
3
74
0
42
0.000000001
43
0.0000000001
44
0.0000000001
40
0
40
0
40
0
40
1
40
1
40
1
10
-92.421026809593059
20
3.8552859623288338
30
0.00011169157269335109
10
-93.463740642573356
20
5.599425060711174
30
9.113195828011454e-05
10
-93.477722512095227
20
8.2289922283377397
30
5.7872840432578163e-05
0
SPLINE
5
180
100
AcDbEntity
8
0
100
AcDbSpline
70
0
71
2
72
6
73
3
74
0
42
0.000000001
43
0.0000000001
44
0.0000000001
40
0
40
0
40
0
40
1
40
1
40
1
10
-88.842617007018674
20
8.2331738141506605
30
5.1090033680833825e-05
10
-88.830539279452012
20
5.9617182109424727
30
7.9819708481548631e-05
10
-87.981138726642428
20
4.9737245195077158
30
9.1090335750991053e-05
0
SPLINE
5
181
100
AcDbEntity
8
0
100
AcDbSpline
70
0
71
2
72
6
73
3
74
0
42
0.000000001
43
0.0000000001
44
0.0000000001
40
0
40
0
40
0
40
1
40
1
40
1
10
-87.981138726642428
20
4.9737245195077158
30
9.1090335750991053e-05
10
-87.131742935798513
20
3.9857296106433404
30
0.00010236098534212352
10
-85.678831115940355
20
3.9934548950520155
30
0.00010015367757694978
0
SPLINE
5
182
100
AcDbEntity
8
0
100
AcDbSpline
70
0
71
2
72
6
73
3
74
0
42
0.000000001
43
0.0000000001
44
0.0000000001
40
0
40
0
40
0
40
1
40
1
40
1
10
-85.678831115940355
20
3.9934548950520155
30
0.00010015367757694978
10
-84.184988173012215
20
4.0013978145315594
30
9.7884186006431002e-05
10
-83.371615173484571
20
4.9777700834013405
30
8.4346393877587374e-05
0
SPLINE
5
183
100
AcDbEntity
8
0
100
AcDbSpline
70
0
71
2
72
6
73
3
74
0
42
0.000000001
43
0.0000000001
44
0.0000000001
40
0
40
0
40
0
40
1
40
1
40
1
10
-83.371615173484571
20
4.9777700834013405
30
8.4346393877587374e-05
10
-82.558242167618445
20
5.9541411601950784
30
7.0808616826281299e-05
10
-82.571625589809344
20
8.4711584681147087
30
3.8973044683833478e-05
0
SPLINE
5
184
100
AcDbEntity
8
0
100
AcDbSpline
70
0
71
2
72
6
73
3
74
0
42
0.000000001
43
0.0000000001
44
0.0000000001
40
0
40
0
40
0
40
1
40
1
40
1
10
-82.571625589809344
20
8.4711584681147087
30
3.8973044683833478e-05
10
-82.582887251105035
20
10.589136664792695
30
1.218457268393151e-05
10
-83.442434214821617
20
11.561729185821124
30
1.1235923397240971e-06
0
SPLINE
5
185
100
AcDbEntity
8
0
100
AcDbSpline
70
0
71
2
72
6
73
3
74
0
42
0.000000001
43
0.0000000001
44
0.0000000001
40
0
40
0
40
0
40
1
40
1
40
1
10
-83.442434214821617
20
11.561729185821124
30
1.1235923397240971e-06
10
-84.301985946842422
20
12.534321681495982
30
-9.937380760330766e-06
10
-85.76513054746809
20
12.526541988319588
30
-7.7145270438207677e-06
0
SPLINE
5
186
100
AcDbEntity
8
0
100
AcDbSpline
70
0
71
2
72
6
73
3
74
0
42
0.000000001
43
0.0000000001
44
0.0000000001
40
0
40
0
40
0
40
1
40
1
40
1
10
-85.76513054746809
20
12.526541988319588
30
-7.7145270438207677e-06
10
-87.16688323179298
20
12.519088722395928
30
-5.5849417911758341e-06
10
-88.010845767322351
20
11.522090049849382
30
8.2583092007699289e-06
0
SPLINE
5
187
100
AcDbEntity
8
0
100
AcDbSpline
70
0
71
2
72
6
73
3
74
0
42
0.000000001
43
0.0000000001
44
0.0000000001
40
0
40
0
40
0
40
1
40
1
40
1
10
-88.010845767322351
20
11.522090049849382
30
8.2583092007699289e-06
10
-88.854803540886024
20
10.525092594732456
30
2.2101537871025636e-05
10
-88.842617007018674
20
8.2331738141506605
30
5.1090033680833825e-05
0
LINE
5
188
100
AcDbEntity
8
0
100
AcDbLine
10
-75.745045873692192
20
15.833617815603509
30
-6.4116936897840011e-05
11
-71.294224923818632
21
15.857283297031845
31
-7.087875926708251e-05
0
LINE
5
189
100
AcDbEntity
8
0
100
AcDbLine
10
-71.294224923818632
20
15.857283297031845
30
-7.087875926708251e-05
11
-71.276053929318323
21
12.439868303532759
31
-2.7654836561463622e-05
0
LINE
5
190
100
AcDbEntity
8
0
100
AcDbLine
10
-71.276053929318323
20
12.439868303532759
30
-2.7654836561463622e-05
11
-72.099016492198984
21
5.5697748624262724
31
6.0486954803377479e-05
0
LINE
5
191
100
AcDbEntity
8
0
100
AcDbLine
10
-72.099016492198984
20
5.5697748624262724
30
6.0486954803377479e-05
11
-74.851367493619691
21
5.5551403237103889
31
6.4668410040291067e-05
0
LINE
5
192
100
AcDbEntity
8
0
100
AcDbLine
10
-74.851367493619691
20
5.5551403237103889
30
6.4668410040291067e-05
11
-75.726874879191882
21
12.416202822104424
31
-2.0893014192221113e-05
0
LINE
5
193
100
AcDbEntity
8
0
100
AcDbLine
10
-75.726874879191882
20
12.416202822104424
30
-2.0893014192221113e-05
11
-75.745045873692192
21
15.833617815603509
31
-6.4116936897840011e-05
0
LINE
5
194
100
AcDbEntity
8
0
100
AcDbLine
10
-75.531347826029943
20
4.5078541719525838
30
7.8910000066047633e-05
11
-71.377248908588513
21
4.5299419512385537
31
7.2598966820641624e-05
0
LINE
5
195
100
AcDbEntity
8
0
100
AcDbLine
10
-71.377248908588513
20
4.5299419512385537
30
7.2598966820641624e-05
11
-71.357717809975099
21
0.8567324722651759
31
0.00011905821245007772
0
LINE
5
196
100
AcDbEntity
8
0
100
AcDbLine
10
-71.357717809975099
20
0.8567324722651759
30
0.00011905821245007772
11
-75.51181672741653
21
0.83464469297920529
31
0.00012536924569548372
0
LINE
5
197
100
AcDbEntity
8
0
100
AcDbLine
10
-75.51181672741653
20
0.83464469297920529
30
0.00012536924569548372
11
-75.531347826029943
21
4.5078541719525838
31
7.8910000066047633e-05
0
ENDSEC
0
SECTION
2
OBJECTS
0
DICTIONARY
5
C
100
AcDbDictionary
3
ACAD_GROUP
350
D
3
ACAD_MLINESTYLE
350
17
0
DICTIONARY
5
D
100
AcDbDictionary
0
DICTIONARY
5
1A
330
C
100
AcDbDictionary
0
DICTIONARY
5
17
100
AcDbDictionary
0
ENDSEC
0
EOF
